<svg xmlns="http://www.w3.org/2000/svg" viewBox="0 0 60 60"><path fill="#788c15" fill-rule="evenodd" clip-rule="evenodd" d="M30 0C46.5685 0 60 13.4315 60 30C60 46.5685 46.5685 60 30 60C13.4315 60 0 46.5685 0 30C0 13.4315 13.4315 0 30 0ZM19.6875 16.2002C19.3923 16.2002 19.1251 16.3621 18.9863 16.6152L18.9346 16.7285L14.2471 29.7285C14.2157 29.8155 14.2002 29.9075 14.2002 30V39.2861C14.2003 40.4857 14.6812 41.6346 15.5352 42.4805C16.389 43.3262 17.5457 43.7998 18.75 43.7998H41.25C42.4543 43.7998 43.611 43.3262 44.4648 42.4805C45.3188 41.6346 45.7997 40.4857 45.7998 39.2861V30C45.7998 29.9075 45.7843 29.8155 45.7529 29.7285L41.0654 16.7285C40.9511 16.4113 40.6497 16.2002 40.3125 16.2002H19.6875ZM24.6279 35.0576C24.7729 35.2969 25.0327 35.4424 25.3125 35.4424H34.6875C34.9673 35.4424 35.2271 35.2969 35.3721 35.0576L37.9512 30.7998H44.2002V39.2861C44.2001 40.0564 43.8911 40.7967 43.3389 41.3438C42.7862 41.8911 42.0348 42.2002 41.25 42.2002H18.75C17.9652 42.2002 17.2138 41.8911 16.6611 41.3438C16.1089 40.7967 15.7999 40.0564 15.7998 39.2861V30.7998H22.0488L24.6279 35.0576ZM43.8604 29.2002H37.5C37.2552 29.2002 37.0256 29.3117 36.875 29.5L36.8154 29.5859L34.2363 33.8428H25.7637L23.1846 29.5859C23.0577 29.3765 22.8427 29.2382 22.6035 29.207L22.5 29.2002H16.1396L20.25 17.7998H39.75L43.8604 29.2002ZM30 22C28.8954 22 28 22.8954 28 24C28 25.1046 28.8954 26 30 26C31.1046 26 32 25.1046 32 24C32 22.8954 31.1046 22 30 22Z"/></svg>
